<?xml version="1.0" encoding="utf-8"?>
<!-- Generator: Adobe Illustrator 16.0.0, SVG Export Plug-In . SVG Version: 6.00 Build 0)  -->
<!DOCTYPE svg PUBLIC "-//W3C//DTD SVG 1.1//EN" "http://www.w3.org/Graphics/SVG/1.1/DTD/svg11.dtd">
<svg version="1.1" id="Layer_1" xmlns="http://www.w3.org/2000/svg" xmlns:xlink="http://www.w3.org/1999/xlink" x="0px" y="0px"
	 width="59px" height="41px" viewBox="0 0 59 41" enable-background="new 0 0 59 41" xml:space="preserve">
<g>
	<g id="Layer_3_49_">
		<path fill="#214382" d="M35.932,9.644h-2.25c-0.292,0-0.528-0.229-0.528-0.511c0-0.282,0.236-0.51,0.528-0.51h2.25
			c0.292,0,0.53,0.229,0.53,0.51C36.462,9.415,36.224,9.644,35.932,9.644z"/>
		<g>
			<path fill="#214382" d="M42.696,17.094c-7.252,0-13.151,5.047-13.151,12.038c0,3.349,1.38,6.411,3.884,8.62
				c2.433,2.145,5.724,3.326,9.268,3.326s6.835-1.182,9.268-3.326c2.505-2.209,3.884-5.271,3.884-8.62
				C55.848,22.141,49.948,17.094,42.696,17.094z M42.696,34.533c-3.089,0-5.603-2.424-5.603-5.401c0-2.979,2.514-5.402,5.603-5.402
				s5.603,2.423,5.603,5.402C48.299,32.109,45.785,34.533,42.696,34.533z"/>
			<path fill="#214382" d="M15.64,23.644c-5.133,0-9.31,4.026-9.31,8.977c0,2.371,0.977,4.539,2.75,6.103
				c1.722,1.52,4.052,2.355,6.561,2.355s4.838-0.836,6.561-2.355c1.773-1.563,2.75-3.731,2.75-6.103
				C24.951,27.67,20.774,23.644,15.64,23.644z M15.64,36.426c-2.176,0-3.948-1.708-3.948-3.806c0-2.099,1.771-3.806,3.948-3.806
				c2.177,0,3.948,1.707,3.948,3.806C19.588,34.718,17.817,36.426,15.64,36.426z"/>
			<path fill="#214382" d="M32.458,19.514c2.7-2.422,6.337-3.755,10.238-3.755c2.628,0,5.137,0.606,7.319,1.741
				c0.011,0.007,0.021,0.01,0.033,0.014c0.199,0.138,0.45,0.212,0.715,0.189c0.586-0.05,1.018-0.549,0.966-1.114
				c-0.01-0.107-0.995-10.776-1.183-12.869c-0.295-3.308-2.774-3.308-3.708-3.308h-14.38c-1.284-0.002-3.663-0.001-4.397,3.505
				c-0.413,1.973-1.322,6.126-2.023,9.297c-3.692,0-7.153,0-9.828,0V8.022c0-0.758-0.637-1.372-1.422-1.372
				s-1.422,0.614-1.422,1.372v5.194c-1.365,0-2.23,0-2.399,0c-4.121,0-5.394,8.531-3.125,12.354
				c1.953-2.006,4.726-3.261,7.799-3.261c5.379,0,9.843,3.848,10.586,8.839h2.088c-0.102-0.658-0.154-1.332-0.154-2.017
				C28.161,25.415,29.688,22,32.458,19.514z M48.424,3.897c0.118,1.312,0.548,5.98,0.855,9.318c-1.685,0-4.932,0-8.853,0V2.467
				h6.412C47.876,2.467,48.302,2.521,48.424,3.897z M30.15,4.325c0.39-1.859,1.114-1.857,2.308-1.858h6.265v10.749
				c-3.302,0-6.959,0-10.507,0C28.956,9.864,29.857,5.727,30.15,4.325z"/>
		</g>
	</g>
</g>
</svg>
