<?xml version="1.0" encoding="utf-8"?>
<!-- Generator: Adobe Illustrator 16.0.0, SVG Export Plug-In . SVG Version: 6.00 Build 0)  -->
<!DOCTYPE svg PUBLIC "-//W3C//DTD SVG 1.1//EN" "http://www.w3.org/Graphics/SVG/1.1/DTD/svg11.dtd">
<svg version="1.1" id="Layer_1" xmlns="http://www.w3.org/2000/svg" xmlns:xlink="http://www.w3.org/1999/xlink" x="0px" y="0px"
	 width="18px" height="16px" viewBox="0 0 18 16" enable-background="new 0 0 18 16" xml:space="preserve">
<path fill="#1F4180" d="M3.5,2h-3C0.225,2,0,2.225,0,2.5v11C0,13.775,0.225,14,0.5,14h3C3.775,14,4,13.775,4,13.5v-11
	C4,2.225,3.775,2,3.5,2z M3,5H1V4h2V5z"/>
<path fill="#1F4180" d="M8.5,2h-3C5.225,2,5,2.225,5,2.5v11C5,13.775,5.225,14,5.5,14h3C8.775,14,9,13.775,9,13.5v-11
	C9,2.225,8.775,2,8.5,2z M8,5H6V4h2V5z"/>
<path fill="#1F4180" d="M11.954,2.773l-2.679,1.35C9.029,4.247,8.93,4.549,9.053,4.794l4.5,8.931
	c0.124,0.245,0.426,0.344,0.672,0.221l2.678-1.35c0.246-0.123,0.346-0.426,0.223-0.671l-4.5-8.93
	C12.501,2.749,12.199,2.65,11.954,2.773z"/>
<path fill="#1F4180" d="M14.5,13.5c0,0.275-0.225,0.5-0.5,0.5s-0.5-0.225-0.5-0.5S13.725,13,14,13S14.5,13.225,14.5,13.5z"/>
</svg>
