<?xml version="1.0" encoding="utf-8"?>
<!-- Generator: Adobe Illustrator 16.0.0, SVG Export Plug-In . SVG Version: 6.00 Build 0)  -->
<!DOCTYPE svg PUBLIC "-//W3C//DTD SVG 1.1//EN" "http://www.w3.org/Graphics/SVG/1.1/DTD/svg11.dtd">
<svg version="1.1" id="Layer_1" xmlns="http://www.w3.org/2000/svg" xmlns:xlink="http://www.w3.org/1999/xlink" x="0px" y="0px"
	 width="60px" height="42px" viewBox="0 0 60 42" enable-background="new 0 0 60 42" xml:space="preserve">
<g>
	<path fill="#DDBF5A" d="M56.814,16.334c-1.084-0.581-8.615-3.213-8.615-3.213S34.232,0.425,32.557,0.425
		c-1.675,0-13.176,0.007-13.176,0.007c-2.804,0-5.152,3.423-7.87,7.386c-1.282,1.865-2.696,3.919-4.255,5.749l-5.81,1.237
		C0.607,15.229,0,16.485,0,17.971v10.641c0,1.837,0.93,3.414,2.079,3.414h3.99c0.29,5.382,3.101,9.549,6.515,9.549
		c3.417,0,6.223-4.167,6.513-9.549h19.06c0.289,5.382,3.1,9.549,6.514,9.549c3.416,0,6.225-4.167,6.514-9.549h3.279
		c2.6,0,3.869-1.839,4.189-3.521C59.457,24.241,58.879,17.439,56.814,16.334z M12.583,36.446c-1.867,0-3.385-2.432-3.385-5.418
		c0-2.992,1.518-5.417,3.385-5.417c1.871,0,3.388,2.425,3.388,5.417C15.972,34.015,14.454,36.446,12.583,36.446z M25.062,12.892
		H13.798c0.824-0.598,1.583-2.023,2.283-3.048c1.84-2.677,3.38-4.936,5.283-4.936c0,0,1.61,0.056,3.699,0.055V12.892L25.062,12.892z
		 M27.673,4.96c0-0.002,2.788-0.117,3.417-0.117c1.566,0,8.045,6.254,10.434,8.048H27.673V4.96L27.673,4.96z M44.67,36.446
		c-1.867,0-3.387-2.432-3.387-5.418c0-2.992,1.52-5.417,3.387-5.417c1.871,0,3.389,2.425,3.389,5.417
		C48.059,34.015,46.541,36.446,44.67,36.446z"/>
</g>
</svg>
