<?xml version="1.0" encoding="utf-8"?>
<!-- Generator: Adobe Illustrator 16.0.0, SVG Export Plug-In . SVG Version: 6.00 Build 0)  -->
<!DOCTYPE svg PUBLIC "-//W3C//DTD SVG 1.1//EN" "http://www.w3.org/Graphics/SVG/1.1/DTD/svg11.dtd">
<svg version="1.1" id="Layer_1" xmlns="http://www.w3.org/2000/svg" xmlns:xlink="http://www.w3.org/1999/xlink" x="0px" y="0px"
	 width="16px" height="16px" viewBox="0 0 16 16" enable-background="new 0 0 16 16" xml:space="preserve">
<path fill="#1F4180" d="M8,0C3.582,0,0,3.582,0,8s3.582,8,8,8s8-3.582,8-8S12.418,0,8,0z M8,15c-0.984,0-1.92-0.203-2.769-0.57
	l3.643-4.098C8.955,10.24,9,10.122,9,10V8.5C9,8.224,8.775,8,8.5,8C6.735,8,4.872,6.165,4.854,6.146C4.76,6.052,4.633,6,4.5,6h-2
	C2.224,6,2,6.224,2,6.5v3c0,0.189,0.107,0.363,0.276,0.447L4,10.809v2.937C2.187,12.48,1,10.379,1,8c0-1.074,0.242-2.091,0.674-3
	H3.5c0.133,0,0.26-0.053,0.354-0.146l2-2C5.948,2.76,6,2.633,6,2.5V1.29C6.634,1.101,7.305,1,8,1c1.1,0,2.141,0.254,3.066,0.706
	c-0.064,0.055-0.127,0.112-0.188,0.172C10.312,2.445,10,3.198,10,3.999s0.312,1.555,0.879,2.121
	c0.569,0.569,1.332,0.879,2.119,0.879c0.049,0,0.1-0.001,0.148-0.004c0.217,0.809,0.605,2.917-0.131,5.817
	c-0.007,0.027-0.011,0.056-0.013,0.082C11.732,14.193,9.961,14.999,8,15L8,15z"/>
</svg>
