<?xml version="1.0" encoding="utf-8"?>
<!-- Generator: Adobe Illustrator 16.0.0, SVG Export Plug-In . SVG Version: 6.00 Build 0)  -->
<!DOCTYPE svg PUBLIC "-//W3C//DTD SVG 1.1//EN" "http://www.w3.org/Graphics/SVG/1.1/DTD/svg11.dtd">
<svg version="1.1" id="Layer_1" xmlns="http://www.w3.org/2000/svg" xmlns:xlink="http://www.w3.org/1999/xlink" x="0px" y="0px"
	 width="60px" height="42px" viewBox="0 0 60 42" enable-background="new 0 0 60 42" xml:space="preserve">
<g>
	<path fill="#1F4281" stroke="#1F4281" stroke-width="2" stroke-miterlimit="10" d="M12.993,23.615c-4.787,0-8.681,3.4-8.681,7.578
		c0,4.181,3.894,7.581,8.681,7.581c4.785,0,8.68-3.4,8.68-7.581C21.672,27.016,17.778,23.615,12.993,23.615z M12.993,36.161
		c-3.137,0-5.688-2.229-5.688-4.968c0-2.736,2.551-4.965,5.688-4.965c3.135,0,5.686,2.229,5.686,4.965
		C18.678,33.932,16.127,36.161,12.993,36.161z M36.836,24.792c-4.168,0-7.559,2.959-7.559,6.599c0,3.641,3.391,6.6,7.559,6.6
		c4.166,0,7.557-2.959,7.557-6.6C44.393,27.751,41.004,24.792,36.836,24.792z M36.836,35.376c-2.518,0-4.564-1.789-4.564-3.985
		c0-2.197,2.047-3.986,4.564-3.986s4.564,1.789,4.564,3.986C41.4,33.589,39.354,35.376,36.836,35.376z M56.666,11.197l-1.201-0.516
		c-0.062-0.027-0.129-0.043-0.197-0.051l-3.311-0.321l-0.973-6.74c-0.029-0.198-0.186-0.365-0.402-0.43
		c-0.217-0.063-0.457-0.014-0.619,0.128l-5.91,5.237C43.916,8.627,43.854,8.8,43.891,8.97l0.156,0.717l-3.992,0.988L34.58,21.09
		h-0.637v-0.087c0-0.181,0.012-0.352,0.029-0.521H33.25L28.32,7.939c-0.137-0.463-0.613-0.787-1.16-0.787H14.388
		c-0.661,0-1.197,0.468-1.197,1.045v10.558c-0.405-0.066-0.82-0.105-1.247-0.105c-3.719,0-6.734,2.633-6.734,5.882v2.024
		c1.624-2.425,4.631-4.061,8.082-4.061c5.171,0,9.363,3.66,9.363,8.178c0,0.629-0.089,1.239-0.243,1.829h5.788
		c-0.088-0.424-0.141-0.861-0.141-1.308c0-3.252,2.484-5.996,5.885-6.87v-0.621H36.5l5.699-10.842l2.408-0.596l0.301,1.394
		c0.031,0.137,0.123,0.257,0.254,0.335c0.1,0.059,0.217,0.09,0.334,0.09c0.039,0,0.078-0.003,0.117-0.01l10.906-1.897
		c0.25-0.043,0.441-0.222,0.475-0.444C57.029,11.512,56.896,11.295,56.666,11.197z M16.401,20.131
		c-0.256-0.198-0.527-0.379-0.815-0.54V9.241h10.644l4.476,10.89H16.401z"/>
</g>
</svg>
