<?xml version="1.0" encoding="utf-8"?>
<!-- Generator: Adobe Illustrator 16.0.0, SVG Export Plug-In . SVG Version: 6.00 Build 0)  -->
<!DOCTYPE svg PUBLIC "-//W3C//DTD SVG 1.1//EN" "http://www.w3.org/Graphics/SVG/1.1/DTD/svg11.dtd">
<svg version="1.1" id="Capa_1" xmlns="http://www.w3.org/2000/svg" xmlns:xlink="http://www.w3.org/1999/xlink" x="0px" y="0px"
	 width="412.172px" height="412.172px" viewBox="0 0 412.172 412.172" enable-background="new 0 0 412.172 412.172"
	 xml:space="preserve">
<g>
	<path fill="#1F4180" d="M89.83,82.766c3.527-6.704,4.245-11.194,2.262-14.129c-0.764-1.131-2.68-3.028-6.917-3.028h-6.027V54.575
		c0-2.799,1.752-3.291,1.932-3.333c0.554-0.08,0.899-0.49,0.856-0.958l-0.335-3.628c-0.022-0.24-0.159-0.464-0.378-0.621
		c-0.22-0.157-0.507-0.234-0.796-0.216c-2.711,0.173-7.838,2.227-7.838,8.758v11.033H54.18L50.273,43.54
		c-0.237-1.339-1.618-2.332-3.245-2.332H14.262c-1.812,0-3.28,1.222-3.28,2.729v5.337c0,1.362,1.201,2.493,2.77,2.696v17.872
		C5.739,72.208,0,78.57,0,86.049c0,9.496,9.25,17.194,20.662,17.194c8.736,0,16.206-4.512,19.228-10.888h25.923
		c0,0.021-0.002,0.041-0.002,0.062c0,5.979,5.824,10.826,13.009,10.826c7.185,0,13.009-4.847,13.009-10.826
		c0-2.785-1.264-5.323-3.34-7.241C88.937,84.411,89.39,83.602,89.83,82.766z M20.662,94.146c-5.365,0-9.729-3.632-9.729-8.096
		s4.364-8.097,9.729-8.097c5.364,0,9.729,3.632,9.729,8.097S26.026,94.146,20.662,94.146z M23.36,65.49V50.687h18.323l2.666,14.804
		H23.36z M78.82,95.966c-2.351,0-4.264-1.592-4.264-3.548c0-1.957,1.913-3.548,4.264-3.548c2.351,0,4.263,1.592,4.263,3.548
		C83.083,94.375,81.171,95.966,78.82,95.966z"/>
</g>
</svg>
