<?xml version="1.0" encoding="utf-8"?>
<!-- Generator: Adobe Illustrator 16.0.0, SVG Export Plug-In . SVG Version: 6.00 Build 0)  -->
<!DOCTYPE svg PUBLIC "-//W3C//DTD SVG 1.1//EN" "http://www.w3.org/Graphics/SVG/1.1/DTD/svg11.dtd">
<svg version="1.1" id="Capa_1" xmlns="http://www.w3.org/2000/svg" xmlns:xlink="http://www.w3.org/1999/xlink" x="0px" y="0px"
	 width="493.188px" height="493.188px" viewBox="0 0 493.188 493.188" enable-background="new 0 0 493.188 493.188"
	 xml:space="preserve">
<g>
	<path fill="#1F4180" stroke="#1F4180" stroke-width="18" stroke-miterlimit="10" d="M81.248,275.234
		C36.448,275.234,0,311.689,0,356.482c0,44.801,36.448,81.249,81.248,81.249c44.796,0,81.248-36.448,81.248-81.249
		C162.496,311.689,126.043,275.234,81.248,275.234z M81.248,409.716c-29.352,0-53.232-23.881-53.232-53.231
		c0-29.346,23.88-53.231,53.232-53.231c29.349,0,53.231,23.886,53.231,53.231C134.479,385.835,110.596,409.716,81.248,409.716z
		 M304.438,287.843c-39.002,0-70.741,31.732-70.741,70.742c0,39.017,31.739,70.742,70.741,70.742
		c39.006,0,70.742-31.728,70.742-70.742C375.181,319.575,343.448,287.843,304.438,287.843z M304.438,401.312
		c-23.562,0-42.725-19.172-42.725-42.729c0-23.552,19.163-42.727,42.725-42.727c23.563,0,42.727,19.175,42.727,42.727
		C347.164,382.143,328.002,401.312,304.438,401.312z M490.06,142.112l-11.247-5.521c-0.589-0.29-1.206-0.47-1.851-0.547
		l-30.974-3.442l-9.116-72.247c-0.266-2.128-1.729-3.917-3.759-4.608c-2.036-0.677-4.285-0.146-5.789,1.375l-55.334,56.137
		c-1.283,1.308-1.854,3.163-1.517,4.979l1.47,7.699l-37.376,10.577l-51.239,111.65h-5.963v-0.93c0-1.933,0.117-3.781,0.271-5.599
		h-6.769L224.726,107.19c-1.266-4.968-5.737-8.438-10.858-8.438H94.32c-6.185,0-11.207,5.018-11.207,11.207v113.183
		c-3.79-0.711-7.683-1.122-11.671-1.122c-34.815,0-63.038,28.22-63.038,63.037v21.715c15.201-26.008,43.346-43.529,75.645-43.529
		c48.405,0,87.65,39.244,87.65,87.654c0,6.748-0.834,13.293-2.279,19.612h54.184c-0.834-4.552-1.331-9.221-1.331-14.01
		c0-34.878,23.259-64.272,55.097-73.646v-6.67h23.93l53.345-116.221l22.539-6.386l2.823,14.944c0.285,1.472,1.142,2.763,2.377,3.606
		c0.929,0.629,2.019,0.958,3.128,0.958c0.361,0,0.729-0.039,1.096-0.116l102.074-20.328c2.354-0.471,4.146-2.386,4.459-4.766
		C493.453,145.489,492.216,143.169,490.06,142.112z M113.152,237.883c-2.388-2.123-4.93-4.06-7.625-5.794v-110.94h99.621
		l41.912,116.734H113.152z"/>
</g>
</svg>
